<svg width="45" height="46" viewBox="0 0 45 46" fill="none" xmlns="http://www.w3.org/2000/svg">
<g filter="url(#filter0_d_672_11)">
<path d="M15.9178 24.5543C11.7333 28.1178 11.1521 34.5235 11.3845 37.281" stroke="white" stroke-width="2.5"/>
</g>
<path d="M27.4975 24.2969C32.3456 28.0077 33.019 34.6782 32.7496 37.5497" stroke="white" stroke-width="2.5"/>
<path d="M31.7546 16.2819C31.7546 21.1092 27.4286 25.2133 21.8458 25.2133C16.263 25.2133 11.937 21.1092 11.937 16.2819C11.937 11.4547 16.263 7.35059 21.8458 7.35059C27.4286 7.35059 31.7546 11.4547 31.7546 16.2819Z" stroke="white" stroke-width="2.5"/>
<path d="M42.9133 20.335C42.9133 30.7861 33.7299 39.42 22.1944 39.42C10.659 39.42 1.47559 30.7861 1.47559 20.335C1.47559 9.88385 10.659 1.25 22.1944 1.25C33.7299 1.25 42.9133 9.88385 42.9133 20.335Z" stroke="white" stroke-width="2.5"/>
<defs>
<filter id="filter0_d_672_11" x="6.09082" y="23.6027" width="14.6372" height="21.7833" filterUnits="userSpaceOnUse" color-interpolation-filters="sRGB">
<feFlood flood-opacity="0" result="BackgroundImageFix"/>
<feColorMatrix in="SourceAlpha" type="matrix" values="0 0 0 0 0 0 0 0 0 0 0 0 0 0 0 0 0 0 127 0" result="hardAlpha"/>
<feOffset dy="4"/>
<feGaussianBlur stdDeviation="2"/>
<feComposite in2="hardAlpha" operator="out"/>
<feColorMatrix type="matrix" values="0 0 0 0 0 0 0 0 0 0 0 0 0 0 0 0 0 0 0.25 0"/>
<feBlend mode="normal" in2="BackgroundImageFix" result="effect1_dropShadow_672_11"/>
<feBlend mode="normal" in="SourceGraphic" in2="effect1_dropShadow_672_11" result="shape"/>
</filter>
</defs>
</svg>
