<svg width="189" height="51" viewBox="0 0 189 51" fill="none" xmlns="http://www.w3.org/2000/svg">
<path d="M41.9551 18.9358L0.138672 50.5579L17.2751 43.1902C19.1881 41.3041 22.8355 40.6165 24.4201 40.5084C27.9271 41.0507 30.6446 38.8089 31.565 37.6203L36.148 31.0483C42.4789 20.8632 49.8876 26.5294 52.8006 30.6357C53.9392 33.1348 60.9798 36.3334 64.3578 37.6203L60.1733 31.0483C59.604 28.5256 63.314 27.3055 65.2402 27.0108C69.7492 36.5122 86.9122 43.8582 94.9301 46.3436C82.1546 35.3569 77.2528 23.2778 76.3988 18.6116C77.2414 21.3936 83.8095 25.7042 86.9882 27.5118C77.3781 12.2105 81.6176 8.07088 84.9386 7.9137C84.0732 5.98042 90.5938 11.0573 93.9623 13.8373C93.7118 15.7942 100.728 23.1796 104.267 26.6277L102.132 22.1776C98.7844 11.4973 104.533 16.8237 107.825 20.8219C111.082 27.5884 118.86 32.6986 122.343 34.4079C119.587 32.0031 119.183 29.2604 119.325 28.1896C127.569 36.2057 143.332 39.7618 150.182 40.5379C144.011 34.3136 142.316 31.343 142.24 30.6357C152.329 41.4102 177.092 48.7013 188.213 51C163.277 41.6637 149.661 27.8949 145.97 22.1776C145.355 20.5744 143.227 20.6058 142.24 20.8219L129.63 24.1816C129.585 25.384 131.737 27.9047 132.818 29.0148C128.787 27.9538 126.451 24.0146 125.787 22.1776C124.603 19.8435 123.662 19.8297 123.339 20.1146C117.988 20.3032 112.816 16.8728 110.9 15.134C110.9 12.0927 107.844 10.6643 106.317 10.3303C100.623 10.9433 93.7346 5.77215 91.0019 3.10995C88.9751 -0.992381 85.6977 -0.171128 84.3124 0.75229C76.1825 2.73273 64.8322 13.0514 60.1733 17.9632C57.691 24.1875 54.2239 24.1717 52.8006 23.3859L47.5913 18.9358C45.4507 16.5074 42.9419 17.9239 41.9551 18.9358Z" fill="white"/>
</svg>
